<?xml version="1.0" encoding="utf-8"?>
<!-- Generator: Adobe Illustrator 20.1.0, SVG Export Plug-In . SVG Version: 6.00 Build 0)  -->
<svg version="1.1" id="Calque_1" xmlns="http://www.w3.org/2000/svg" xmlns:xlink="http://www.w3.org/1999/xlink" x="0px" y="0px"
	 viewBox="0 0 800 800" style="enable-background:new 0 0 800 800;" xml:space="preserve">
<style type="text/css">
	.st0{fill:#0B6D80;}
	.st1{fill:#96C237;}
	.st2{fill:#0B2637;}
	.st3{fill:#AFCBEB;}
	.st4{opacity:0.92;fill:#0C4B60;}
	.st5{opacity:0.7;fill:#0C4B60;}
</style>
<g>
	<path id="XMLID_26_" class="st0" d="M197.3,588.3c-6.3,0-12.7-2.5-17.4-7.4c-57.5-60.3-89.2-139.4-89.2-222.8
		c0-178,144.8-322.8,322.8-322.8c178,0,322.8,144.8,322.8,322.8c0,83.4-31.7,162.5-89.2,222.8c-9.2,9.6-24.4,10-34,0.8
		c-9.6-9.2-10-24.4-0.8-34c49-51.3,75.9-118.7,75.9-189.6c0-151.5-123.2-274.7-274.7-274.7c-151.5,0-274.7,123.2-274.7,274.7
		c0,71,27,138.3,75.9,189.6c9.2,9.6,8.8,24.8-0.8,34C209.2,586.1,203.2,588.3,197.3,588.3z"/>
	<path id="XMLID_25_" class="st1" d="M413.4,564.3c-113.7,0-206.2-92.5-206.2-206.2s92.5-206.2,206.2-206.2
		c113.7,0,206.2,92.5,206.2,206.2c0,13.3-10.8,24-24,24c-13.3,0-24-10.8-24-24c0-87.2-71-158.2-158.2-158.2s-158.2,71-158.2,158.2
		c0,87.2,71,158.2,158.2,158.2c13.3,0,24,10.8,24,24C437.5,553.6,426.7,564.3,413.4,564.3z"/>
	<path id="XMLID_24_" class="st2" d="M629.6,588.3c-6,0-11.9-2.2-16.6-6.6c-9.6-9.2-10-24.4-0.8-34c49-51.3,75.9-118.7,75.9-189.6
		c0-13.3,10.8-24,24-24c13.3,0,24,10.8,24,24c0,83.4-31.7,162.5-89.2,222.8C642.2,585.8,635.9,588.3,629.6,588.3z"/>
	<path id="XMLID_23_" class="st3" d="M197.3,588.3c-6.3,0-12.7-2.5-17.4-7.4c-57.5-60.3-89.2-139.4-89.2-222.8
		c0-57.3,15.2-113.5,44-162.7c27.9-47.7,67.8-87.7,115.4-115.7c11.4-6.7,26.2-2.9,32.9,8.5c6.7,11.4,2.9,26.2-8.5,32.9
		c-83.7,49.2-135.7,140-135.7,237c0,71,27,138.3,75.9,189.6c9.2,9.6,8.8,24.8-0.8,34C209.2,586.1,203.2,588.3,197.3,588.3z"/>
	<circle id="XMLID_22_" class="st4" cx="262.2" cy="100.4" r="24"/>
	<circle id="XMLID_21_" class="st5" cx="542.6" cy="229.7" r="24"/>
	<path id="XMLID_20_" class="st0" d="M157.1,119.7c-2,0-4.1-0.8-5.7-2.3L66.6,32.6c-3.1-3.1-3.1-8.2,0-11.3c3.1-3.1,8.2-3.1,11.3,0
		l84.8,84.8c3.1,3.1,3.1,8.2,0,11.3C161.2,119,159.1,119.7,157.1,119.7z"/>
	<path d="M413.4,424.4c36.6,0,66.3-29.7,66.3-66.3c0-36.6-29.7-66.3-66.3-66.3c-4.1,0-7.8-1.6-10.6-4.1c8.7,7.8,14.2,19,14.2,31.6
		c0,23.4-19,42.4-42.4,42.4c-11.8,0-22.5-4.9-30.2-12.7c0,0.1,0,0.2,0,0.2c1.7,2.5,2.7,5.6,2.7,8.9
		C347.1,394.7,376.9,424.4,413.4,424.4z"/>
	<path class="st0" d="M413.4,259.8c-8.8,0-16,7.2-16,16c0,4.3,1.8,8.1,4.6,11c0,0-0.1,0-0.1,0c0.3,0.3,0.6,0.6,1,0.9
		c2.8,2.5,6.5,4.1,10.6,4.1c36.6,0,66.3,29.7,66.3,66.3c0,36.6-29.7,66.3-66.3,66.3c-36.6,0-66.3-29.7-66.3-66.3
		c0-3.3-1-6.4-2.7-8.9c-2.9-4.3-7.8-7.1-13.3-7.1c-8.8,0-16,7.2-16,16c0,54.2,44.1,98.3,98.3,98.3c54.2,0,98.3-44.1,98.3-98.3
		C511.7,303.9,467.6,259.8,413.4,259.8z"/>
</g>
<g>
	<path class="st1" d="M301.8,749.8v3.8c0,1.9-0.3,4.4-0.9,7.5c-0.6,3.1-2.3,6.3-4.9,9.4s-6.7,5.8-12,8.1c-5.3,2.3-12.7,3.4-22.1,3.4
		c-9.4,0-16.8-1.1-22.1-3.4c-5.4-2.3-9.3-5-12-8.1c-2.7-3.1-4.3-6.3-4.9-9.5c-0.6-3.2-0.9-5.7-0.9-7.4V751v-67.1
		c0-1.7,0.3-4.2,0.9-7.4c0.6-3.2,2.3-6.4,4.9-9.5c2.7-3.1,6.7-5.8,12-8.1c5.3-2.3,12.7-3.4,22.1-3.4c9.4,0,16.8,1.1,22.1,3.4
		c5.4,2.3,9.3,5,12,8.1s4.3,6.3,4.9,9.4c0.6,3.1,0.9,5.7,0.9,7.5V749.8z M281.8,747.5v-57.4v-2.6c0-1.4-0.2-2.9-0.7-4.6
		c-0.5-1.6-1.4-3.2-2.9-4.6c-1.5-1.4-3.6-2.6-6.2-3.6c-2.7-1-6.3-1.5-10.8-1.5c-4.2,0-7.6,0.5-10.2,1.5c-2.6,1-4.6,2.3-6,3.8
		c-1.4,1.5-2.3,3.1-2.7,4.8c-0.4,1.7-0.6,3.2-0.6,4.5v2.3v57.4v2.3c0,1.3,0.2,2.7,0.6,4.5c0.4,1.7,1.3,3.3,2.7,4.8
		c1.4,1.5,3.4,2.7,6,3.8c2.6,1,6,1.5,10.2,1.5c4.6,0,8.2-0.5,10.8-1.5c2.6-1,4.7-2.2,6.2-3.7c1.5-1.4,2.5-2.9,2.9-4.6
		c0.5-1.6,0.7-3.2,0.7-4.6V747.5z"/>
	<path class="st1" d="M452.2,780.2h-20v-90.4v-2.1c0-1.4-0.2-2.9-0.6-4.6c-0.4-1.7-1.3-3.2-2.7-4.7c-1.4-1.5-3.4-2.7-6-3.8
		c-2.6-1-6-1.5-10.2-1.5c-4.4,0-8,0.5-10.7,1.5c-2.8,1-4.9,2.2-6.4,3.6c-1.5,1.4-2.5,2.9-2.9,4.6c-0.5,1.7-0.7,3.1-0.7,4.4v2.6v90.4
		h-20v-92v-4.2c0-1.9,0.3-4.4,0.9-7.5c0.6-3.1,2.3-6.3,5.1-9.4c2.7-3.1,6.8-5.8,12.1-8.1c5.4-2.3,12.7-3.4,22.1-3.4
		c9.4,0,16.8,1.1,22.1,3.4s9.3,5,12,8.1c2.6,3.1,4.3,6.3,4.9,9.5c0.6,3.2,0.9,5.7,0.9,7.4v2.3V780.2z"/>
	<path class="st1" d="M602.3,749.8v3.8c0,1.9-0.3,4.4-0.9,7.5c-0.6,3.1-2.3,6.3-4.9,9.4c-2.7,3.1-6.7,5.8-12,8.1
		c-5.3,2.3-12.7,3.4-22.1,3.4c-9.4,0-16.8-1.1-22.1-3.4c-5.4-2.3-9.3-5-12-8.1c-2.7-3.1-4.3-6.3-4.9-9.5c-0.6-3.2-0.9-5.7-0.9-7.4
		V751v-67.1c0-1.7,0.3-4.2,0.9-7.4c0.6-3.2,2.3-6.4,4.9-9.5c2.7-3.1,6.7-5.8,12-8.1c5.3-2.3,12.7-3.4,22.1-3.4
		c9.4,0,16.8,1.1,22.1,3.4c5.4,2.3,9.3,5,12,8.1c2.7,3.1,4.3,6.3,4.9,9.4s0.9,5.7,0.9,7.5V749.8z M582.4,747.5v-57.4v-2.6
		c0-1.4-0.2-2.9-0.7-4.6c-0.5-1.6-1.4-3.2-2.9-4.6c-1.5-1.4-3.6-2.6-6.2-3.6c-2.7-1-6.3-1.5-10.8-1.5c-4.2,0-7.6,0.5-10.2,1.5
		c-2.6,1-4.6,2.3-6,3.8c-1.4,1.5-2.3,3.1-2.7,4.8c-0.4,1.7-0.6,3.2-0.6,4.5v2.3v57.4v2.3c0,1.3,0.2,2.7,0.6,4.5
		c0.4,1.7,1.3,3.3,2.7,4.8c1.4,1.5,3.4,2.7,6,3.8c2.6,1,6,1.5,10.2,1.5c4.6,0,8.2-0.5,10.8-1.5c2.6-1,4.7-2.2,6.2-3.7
		c1.5-1.4,2.5-2.9,2.9-4.6c0.5-1.6,0.7-3.2,0.7-4.6V747.5z"/>
</g>
</svg>
