<?xml version="1.0" encoding="utf-8"?>
<!-- Generator: Adobe Illustrator 19.0.0, SVG Export Plug-In . SVG Version: 6.00 Build 0)  -->
<svg version="1.1" id="Calque_1" xmlns="http://www.w3.org/2000/svg" xmlns:xlink="http://www.w3.org/1999/xlink" x="0px" y="0px"
	 viewBox="-173 180 439 363" style="enable-background:new -173 180 439 363;" xml:space="preserve">
<style type="text/css">
	.st0{fill:none;stroke:#0D6C82;stroke-width:30;stroke-linecap:round;stroke-miterlimit:10;}
	.st1{fill:none;stroke:#8CC63F;stroke-width:30;stroke-linecap:round;stroke-miterlimit:10;}
	
		.st2{opacity:0.92;fill:none;stroke:#074B60;stroke-width:30;stroke-linecap:round;stroke-miterlimit:10;enable-background:new    ;}
	
		.st3{opacity:0.71;fill:none;stroke:#F2F2F2;stroke-width:30;stroke-linecap:round;stroke-miterlimit:10;enable-background:new    ;}
	.st4{opacity:0.92;fill:#074B60;enable-background:new    ;}
	.st5{fill:none;stroke:#0D6C82;stroke-width:20;stroke-linecap:round;stroke-miterlimit:10;}
	.st6{fill:none;stroke:#0D6C82;stroke-width:10;stroke-linecap:round;stroke-miterlimit:10;}
	.st7{fill:#FFFFFF;}
</style>
<title>map3</title>
<g>
	<g id="Calque_1_1_">
		<circle cx="46.6" cy="392.7" r="44.3"/>
		<path id="_Tracé_" class="st0" d="M-88.9,522c-33.2-34.7-51.6-80.8-51.6-128.8c0-103,83.5-186.6,186.6-186.6
			s186.6,83.5,186.6,186.6c0.1,48-18.4,94.1-51.6,128.8"/>
		<path id="_Tracé_2" class="st1" d="M46.1,507c-62.9,0-113.8-51-113.8-113.8s51-113.8,113.8-113.8s113.8,51,113.8,113.8l0,0"/>
		<path id="_Tracé_3" class="st2" d="M232.7,393.2c0.1,48-18.4,94.1-51.6,128.8"/>
		<path id="_Tracé_4" class="st3" d="M-88.9,522c-71.1-74.6-68.4-192.7,6.2-263.9c10.4-9.9,21.9-18.6,34.3-25.9"/>
		<circle class="st4" cx="-48.3" cy="232.2" r="15.1"/>
		<circle class="st4" cx="92.6" cy="289.2" r="15.1"/>
		<circle class="st4" cx="-34.2" cy="472.7" r="15.1"/>
		<path class="st5" d="M46.1,341.8c28.4,0,51.4,23,51.4,51.4s-23,51.4-51.4,51.4s-51.4-23-51.4-51.4l0,0"/>
		<line class="st6" x1="-114" y1="239.3" x2="-167" y2="186.4"/>
		<circle class="st7" cx="18.6" cy="365.7" r="23.9"/>
	</g>
</g>
</svg>
