<?xml version="1.0" encoding="utf-8"?>
<!-- Generator: Adobe Illustrator 19.0.0, SVG Export Plug-In . SVG Version: 6.00 Build 0)  -->
<svg version="1.1" id="Calque_1" xmlns="http://www.w3.org/2000/svg" xmlns:xlink="http://www.w3.org/1999/xlink" x="0px" y="0px"
	 viewBox="-82 82.9 133.5 137.1" style="enable-background:new -82 82.9 133.5 137.1;" xml:space="preserve">
<style type="text/css">
	.st0{fill:#0D6D83;}
	.st1{fill:#0B4C61;}
	.st2{fill:#8EC044;}
	.st3{opacity:0.92;fill:#0B4C61;enable-background:new    ;}
	.st4{opacity:0.71;fill:#F2F2F2;enable-background:new    ;}
	.st5{fill:#010202;}
	.st6{fill:#FFFFFF;}
	.st7{opacity:0.43;enable-background:new    ;}
	.st8{opacity:0.46;enable-background:new    ;}
	.st9{opacity:0.63;enable-background:new    ;}
	.st10{opacity:0.66;fill:#F6F6F6;enable-background:new    ;}
	.st11{fill:#F6F6F6;}
	.st12{enable-background:new    ;}
</style>
<path class="st0" d="M252.3,207.1c-1.2,0-2.4-0.5-3.2-1.4c-10.8-11.3-16.7-26-16.7-41.6c0-33.3,27.1-60.3,60.3-60.3
	c33.3,0,60.3,27.1,60.3,60.3c0,15.6-5.9,30.4-16.7,41.6c-1.7,1.8-4.6,1.9-6.3,0.1c-1.8-1.7-1.9-4.6-0.1-6.3
	c9.1-9.6,14.1-22.2,14.1-35.4c0-28.3-23-51.3-51.3-51.3s-51.3,23-51.3,51.3c0,13.3,5,25.8,14.2,35.4c1.7,1.8,1.6,4.6-0.1,6.3
	C254.5,206.7,253.4,207.1,252.3,207.1z"/>
<rect x="183.7" y="242" class="st1" width="419.5" height="238.7"/>
<path class="st2" d="M292.7,202.6c-21.2,0-38.5-17.3-38.5-38.5s17.3-38.5,38.5-38.5s38.5,17.3,38.5,38.5c0,2.5-2,4.5-4.5,4.5
	s-4.5-2-4.5-4.5c0-16.3-13.3-29.6-29.6-29.6S263,147.8,263,164.1s13.3,29.6,29.6,29.6c2.5,0,4.5,2,4.5,4.5S295.2,202.6,292.7,202.6z
	"/>
<path class="st3" d="M333.1,207.1c-1.1,0-2.2-0.4-3.1-1.2c-1.8-1.7-1.9-4.6-0.1-6.3c9.1-9.7,14.1-22.3,14.1-35.5
	c0-2.5,2-4.5,4.5-4.5s4.5,2,4.5,4.5c0,15.6-5.9,30.4-16.7,41.6C335.4,206.6,334.3,207.1,333.1,207.1z"/>
<path class="st4" d="M252.3,207.1c-1.2,0-2.4-0.5-3.2-1.4c-10.8-11.3-16.7-26-16.7-41.6c0-10.7,2.8-21.2,8.2-30.4
	c5.2-8.9,12.7-16.4,21.6-21.6c2.1-1.3,4.9-0.5,6.1,1.6c1.3,2.1,0.5,4.9-1.6,6.1c-15.6,9.2-25.4,26.2-25.4,44.3
	c0,13.3,5,25.8,14.2,35.4c1.7,1.8,1.6,4.6-0.1,6.3C254.5,206.7,253.4,207.1,252.3,207.1z"/>
<circle class="st3" cx="264.4" cy="115.9" r="4.5"/>
<circle class="st3" cx="316.8" cy="140.1" r="4.5"/>
<circle class="st3" cx="268.5" cy="188" r="4.5"/>
<path class="st0" d="M244.8,119.5c-0.4,0-0.8-0.1-1.1-0.4l-15.8-15.8c-0.6-0.6-0.6-1.5,0-2.1s1.5-0.6,2.1,0l15.8,15.8
	c0.6,0.6,0.6,1.5,0,2.1C245.6,119.4,245.2,119.5,244.8,119.5z"/>
<path class="st5" d="M293.1,150.5c-0.9,0-1.8,0.1-2.6,0.3c1.7,1.5,2.8,3.6,2.8,6.1c0,4.4-3.5,7.9-7.9,7.9c-2.2,0-4.2-0.9-5.6-2.4
	c-0.1,0.5-0.1,1-0.1,1.6c0,7.4,6,13.4,13.4,13.4s13.4-6,13.4-13.4C306.6,156.5,300.6,150.5,293.1,150.5z"/>
<path class="st0" d="M292.7,182.4c-10.1,0-18.4-8.2-18.4-18.4c0-1.7,1.3-3,3-3s3,1.3,3,3c0,6.8,5.6,12.4,12.4,12.4
	s12.4-5.6,12.4-12.4c0-6.8-5.6-12.4-12.4-12.4c-1.7,0-3-1.3-3-3s1.3-3,3-3c10.1,0,18.4,8.2,18.4,18.4
	C311.1,174.2,302.8,182.4,292.7,182.4z"/>
<path class="st6" d="M355.3,397.1c-1.2,0-2.4-0.5-3.2-1.4c-10.8-11.3-16.7-26-16.7-41.6c0-33.3,27.1-60.3,60.3-60.3
	c33.3,0,60.3,27.1,60.3,60.3c0,15.6-5.9,30.4-16.7,41.6c-1.7,1.8-4.6,1.9-6.3,0.1c-1.8-1.7-1.9-4.6-0.1-6.3
	c9.2-9.6,14.2-22.2,14.2-35.4c0-28.3-23-51.3-51.3-51.3s-51.3,23-51.3,51.3c0,13.3,5,25.8,14.2,35.4c1.7,1.8,1.6,4.6-0.1,6.3
	C357.5,396.7,356.4,397.1,355.3,397.1z"/>
<path class="st6" d="M395.7,392.6c-21.2,0-38.5-17.3-38.5-38.5s17.3-38.5,38.5-38.5s38.5,17.3,38.5,38.5c0,2.5-2,4.5-4.5,4.5
	s-4.5-2-4.5-4.5c0-16.3-13.3-29.6-29.6-29.6S366,337.8,366,354.1c0,16.3,13.3,29.6,29.6,29.6c2.5,0,4.5,2,4.5,4.5
	S398.2,392.6,395.7,392.6z"/>
<path class="st7" d="M436.1,397.1c-1.1,0-2.2-0.4-3.1-1.2c-1.8-1.7-1.9-4.6-0.1-6.3c9.2-9.6,14.2-22.2,14.2-35.4
	c0-2.5,2-4.5,4.5-4.5s4.5,2,4.5,4.5c0,15.6-5.9,30.4-16.7,41.6C438.4,396.6,437.3,397.1,436.1,397.1z"/>
<path class="st7" d="M355.3,397.1c-1.2,0-2.4-0.5-3.2-1.4c-10.8-11.3-16.7-26-16.7-41.6c0-10.7,2.8-21.2,8.2-30.4
	c5.2-8.9,12.7-16.4,21.6-21.6c2.1-1.3,4.9-0.5,6.1,1.6c1.3,2.1,0.5,4.9-1.6,6.1c-15.6,9.2-25.4,26.2-25.4,44.3
	c0,13.3,5,25.8,14.2,35.4c1.7,1.8,1.6,4.6-0.1,6.3C357.5,396.7,356.4,397.1,355.3,397.1z"/>
<circle class="st8" cx="367.4" cy="305.9" r="4.5"/>
<circle class="st9" cx="419.8" cy="330.1" r="4.5"/>
<circle class="st9" cx="371.5" cy="378" r="4.5"/>
<path class="st6" d="M347.8,309.5c-0.4,0-0.8-0.1-1.1-0.4l-15.8-15.8c-0.6-0.6-0.6-1.5,0-2.1c0.6-0.6,1.5-0.6,2.1,0l15.8,15.8
	c0.6,0.6,0.6,1.5,0,2.1C348.6,309.4,348.2,309.5,347.8,309.5z"/>
<path class="st10" d="M396.1,340.5c-0.9,0-1.8,0.1-2.6,0.3c1.7,1.5,2.8,3.6,2.8,6.1c0,4.4-3.5,7.9-7.9,7.9c-2.2,0-4.2-0.9-5.6-2.4
	c-0.1,0.5-0.1,1-0.1,1.6c0,7.4,6,13.4,13.4,13.4s13.4-6,13.4-13.4C409.6,346.5,403.6,340.5,396.1,340.5z"/>
<path class="st11" d="M395.7,372.4c-10.1,0-18.4-8.2-18.4-18.4c0-1.7,1.3-3,3-3s3,1.3,3,3c0,6.8,5.6,12.4,12.4,12.4
	s12.4-5.6,12.4-12.4s-5.6-12.4-12.4-12.4c-1.7,0-3-1.3-3-3s1.3-3,3-3c10.1,0,18.4,8.2,18.4,18.4S405.8,372.4,395.7,372.4z"/>
<path class="st0" d="M-55.7,193.1c-1.2,0-2.4-0.5-3.2-1.4c-10.8-11.3-16.7-26.1-16.7-41.6c0-33.3,27.1-60.3,60.3-60.3
	c33.3,0,60.3,27,60.3,60.3c0,15.6-5.9,30.4-16.7,41.6c-1.7,1.8-4.6,1.9-6.3,0.1c-1.8-1.7-1.9-4.6-0.1-6.3
	C31,175.9,36,163.3,36,150.1c0-28.3-23-51.3-51.3-51.3s-51.3,23-51.3,51.3c0,13.3,5,25.8,14.2,35.4c1.7,1.8,1.6,4.6-0.1,6.3
	C-53.5,192.7-54.6,193.1-55.7,193.1z"/>
<path class="st2" d="M-15.3,188.6c-21.2,0-38.5-17.3-38.5-38.5s17.3-38.5,38.5-38.5s38.5,17.3,38.5,38.5c0,2.5-2,4.5-4.5,4.5
	s-4.5-2-4.5-4.5c0-16.3-13.3-29.6-29.6-29.6s-29.5,13.3-29.5,29.6s13.3,29.6,29.6,29.6c2.5,0,4.5,2,4.5,4.5S-12.8,188.6-15.3,188.6z
	"/>
<path class="st3" d="M25.1,193.1c-1.1,0-2.2-0.4-3.1-1.2c-1.8-1.7-1.9-4.6-0.1-6.3C31,175.9,36,163.3,36,150.1c0-2.5,2-4.5,4.5-4.5
	s4.5,2,4.5,4.5c0,15.6-5.9,30.4-16.7,41.6C27.4,192.6,26.3,193.1,25.1,193.1z"/>
<path class="st4" d="M-55.7,193.1c-1.2,0-2.4-0.5-3.2-1.4c-10.8-11.3-16.7-26.1-16.7-41.6c0-10.7,2.8-21.2,8.2-30.4
	c5.2-8.9,12.7-16.4,21.6-21.6c2.1-1.3,4.9-0.5,6.1,1.6c1.3,2.1,0.5,4.9-1.6,6.1c-15.6,9.2-25.3,26.1-25.3,44.3
	c0,13.3,5,25.8,14.2,35.4c1.7,1.8,1.6,4.6-0.1,6.3C-53.5,192.7-54.6,193.1-55.7,193.1z"/>
<circle class="st3" cx="-43.6" cy="101.9" r="4.5"/>
<circle class="st3" cx="8.8" cy="126.1" r="4.5"/>
<circle class="st3" cx="-39.5" cy="174" r="4.5"/>
<path class="st0" d="M-63.2,105.5c-0.4,0-0.8-0.1-1.1-0.4l-15.8-15.9c-0.6-0.6-0.6-1.5,0-2.1c0.6-0.6,1.5-0.6,2.1,0l15.8,15.8
	c0.6,0.6,0.6,1.5,0,2.1C-62.4,105.4-62.8,105.5-63.2,105.5z"/>
<path class="st5" d="M-14.9,136.5c-0.9,0-1.8,0.1-2.6,0.3c1.7,1.5,2.8,3.6,2.8,6.1c0,4.4-3.5,7.9-7.9,7.9c-2.2,0-4.2-0.9-5.6-2.4
	c-0.1,0.5-0.1,1-0.1,1.6c0,7.4,6,13.4,13.4,13.4s13.4-6,13.4-13.4C-1.4,142.5-7.4,136.5-14.9,136.5z"/>
<path class="st0" d="M-15.3,168.4c-10.1,0-18.4-8.2-18.4-18.4c0-1.7,1.3-3,3-3s3,1.3,3,3c0,6.8,5.6,12.4,12.4,12.4
	s12.4-5.6,12.4-12.4c0-6.8-5.6-12.4-12.4-12.4c-1.7,0-3-1.3-3-3s1.3-3,3-3c10.1,0,18.4,8.2,18.4,18.4
	C3.1,160.2-5.2,168.4-15.3,168.4z"/>
<g class="st12">
	<path class="st0" d="M-43.5,203.3c0-2.8,0.8-5.1,2.3-6.9s3.6-2.7,6.1-2.7c2.5,0,4.6,0.9,6.1,2.7s2.3,4.1,2.3,6.9v0.6
		c0,2.8-0.8,5.1-2.3,6.9s-3.6,2.7-6.1,2.7c-2.6,0-4.6-0.9-6.1-2.7s-2.3-4.1-2.3-6.9V203.3z M-41.4,203.9c0,2.2,0.6,4.1,1.7,5.6
		s2.7,2.2,4.7,2.2c2,0,3.5-0.8,4.6-2.2s1.7-3.4,1.7-5.6v-0.6c0-2.2-0.6-4-1.7-5.5s-2.7-2.3-4.6-2.3s-3.5,0.8-4.6,2.3
		s-1.7,3.4-1.7,5.5V203.9z"/>
	<path class="st0" d="M-20.5,194.1l0.2,3.3c0.6-1.2,1.4-2.1,2.5-2.7s2.3-1,3.7-1c2.1,0,3.6,0.6,4.7,1.9s1.6,3.2,1.6,5.9v11.6h-2.1
		v-11.6c0-2.2-0.4-3.7-1.2-4.6s-2-1.4-3.5-1.4c-1.5,0-2.7,0.4-3.6,1.1s-1.6,1.7-2,3v13.5h-2.1v-19H-20.5z"/>
	<path class="st0" d="M-3.5,203.3c0-2.8,0.8-5.1,2.3-6.9s3.6-2.7,6.1-2.7c2.5,0,4.6,0.9,6.1,2.7s2.3,4.1,2.3,6.9v0.6
		c0,2.8-0.8,5.1-2.3,6.9s-3.6,2.7-6.1,2.7c-2.6,0-4.6-0.9-6.1-2.7s-2.3-4.1-2.3-6.9V203.3z M-1.4,203.9c0,2.2,0.6,4.1,1.7,5.6
		s2.7,2.2,4.7,2.2c2,0,3.5-0.8,4.6-2.2s1.7-3.4,1.7-5.6v-0.6c0-2.2-0.6-4-1.7-5.5s-2.7-2.3-4.6-2.3s-3.5,0.8-4.6,2.3
		s-1.7,3.4-1.7,5.5V203.9z"/>
</g>
</svg>
