<?xml version="1.0" encoding="utf-8"?>
<!-- Generator: Adobe Illustrator 19.0.0, SVG Export Plug-In . SVG Version: 6.00 Build 0)  -->
<svg version="1.1" id="Calque_1" xmlns="http://www.w3.org/2000/svg" xmlns:xlink="http://www.w3.org/1999/xlink" x="0px" y="0px"
	 viewBox="0 0 133.5 116" style="enable-background:new 0 0 133.5 116;" xml:space="preserve">
<style type="text/css">
	.st0{fill:#0D6D83;}
	.st1{fill:#0B4C61;}
	.st2{fill:#8EC044;}
	.st3{opacity:0.92;fill:#0B4C61;}
	.st4{opacity:0.71;fill:#F2F2F2;}
	.st5{fill:#010202;}
	.st6{fill:#FFFFFF;}
	.st7{opacity:0.43;}
	.st8{opacity:0.46;}
	.st9{opacity:0.63;}
	.st10{opacity:0.66;fill:#F6F6F6;}
	.st11{fill:#F6F6F6;}
</style>
<path class="st0" d="M334.3,124.2c-1.2,0-2.4-0.5-3.2-1.4c-10.8-11.3-16.7-26-16.7-41.6c0-33.3,27.1-60.3,60.3-60.3
	c33.3,0,60.3,27.1,60.3,60.3c0,15.6-5.9,30.4-16.7,41.6c-1.7,1.8-4.6,1.9-6.3,0.1c-1.8-1.7-1.9-4.6-0.1-6.3
	C421,107,426,94.4,426,81.2c0-28.3-23-51.3-51.3-51.3c-28.3,0-51.3,23-51.3,51.3c0,13.3,5,25.8,14.2,35.4c1.7,1.8,1.6,4.6-0.1,6.3
	C336.5,123.8,335.4,124.2,334.3,124.2z"/>
<rect x="265.7" y="159.1" class="st1" width="419.5" height="238.7"/>
<path class="st2" d="M374.7,119.7c-21.2,0-38.5-17.3-38.5-38.5s17.3-38.5,38.5-38.5c21.2,0,38.5,17.3,38.5,38.5c0,2.5-2,4.5-4.5,4.5
	s-4.5-2-4.5-4.5c0-16.3-13.3-29.6-29.6-29.6s-29.6,13.3-29.6,29.6c0,16.3,13.3,29.6,29.6,29.6c2.5,0,4.5,2,4.5,4.5
	S377.2,119.7,374.7,119.7z"/>
<path class="st3" d="M415.1,124.2c-1.1,0-2.2-0.4-3.1-1.2c-1.8-1.7-1.9-4.6-0.1-6.3C421,107,426,94.4,426,81.2c0-2.5,2-4.5,4.5-4.5
	s4.5,2,4.5,4.5c0,15.6-5.9,30.4-16.7,41.6C417.4,123.7,416.3,124.2,415.1,124.2z"/>
<path class="st4" d="M334.3,124.2c-1.2,0-2.4-0.5-3.2-1.4c-10.8-11.3-16.7-26-16.7-41.6c0-10.7,2.8-21.2,8.2-30.4
	c5.2-8.9,12.7-16.4,21.6-21.6c2.1-1.3,4.9-0.5,6.1,1.6c1.3,2.1,0.5,4.9-1.6,6.1c-15.6,9.2-25.4,26.2-25.4,44.3
	c0,13.3,5,25.8,14.2,35.4c1.7,1.8,1.6,4.6-0.1,6.3C336.5,123.8,335.4,124.2,334.3,124.2z"/>
<circle class="st3" cx="346.4" cy="33" r="4.5"/>
<circle class="st3" cx="398.8" cy="57.2" r="4.5"/>
<circle class="st3" cx="350.5" cy="105.1" r="4.5"/>
<path class="st0" d="M326.8,36.6c-0.4,0-0.8-0.1-1.1-0.4l-15.8-15.8c-0.6-0.6-0.6-1.5,0-2.1c0.6-0.6,1.5-0.6,2.1,0l15.8,15.8
	c0.6,0.6,0.6,1.5,0,2.1C327.6,36.5,327.2,36.6,326.8,36.6z"/>
<path class="st5" d="M375.1,67.6c-0.9,0-1.8,0.1-2.6,0.3c1.7,1.5,2.8,3.6,2.8,6.1c0,4.4-3.5,7.9-7.9,7.9c-2.2,0-4.2-0.9-5.6-2.4
	c-0.1,0.5-0.1,1-0.1,1.6c0,7.4,6,13.4,13.4,13.4c7.4,0,13.4-6,13.4-13.4C388.6,73.6,382.6,67.6,375.1,67.6z"/>
<path class="st0" d="M374.7,99.5c-10.1,0-18.4-8.2-18.4-18.4c0-1.7,1.3-3,3-3c1.7,0,3,1.3,3,3c0,6.8,5.6,12.4,12.4,12.4
	c6.8,0,12.4-5.6,12.4-12.4c0-6.8-5.6-12.4-12.4-12.4c-1.7,0-3-1.3-3-3s1.3-3,3-3c10.1,0,18.4,8.2,18.4,18.4S384.8,99.5,374.7,99.5z"
	/>
<path class="st6" d="M437.3,314.2c-1.2,0-2.4-0.5-3.2-1.4c-10.8-11.3-16.7-26-16.7-41.6c0-33.3,27.1-60.3,60.3-60.3
	c33.3,0,60.3,27.1,60.3,60.3c0,15.6-5.9,30.4-16.7,41.6c-1.7,1.8-4.6,1.9-6.3,0.1c-1.8-1.7-1.9-4.6-0.1-6.3
	c9.2-9.6,14.2-22.2,14.2-35.4c0-28.3-23-51.3-51.3-51.3c-28.3,0-51.3,23-51.3,51.3c0,13.3,5,25.8,14.2,35.4c1.7,1.8,1.6,4.6-0.1,6.3
	C439.5,313.8,438.4,314.2,437.3,314.2z"/>
<path class="st6" d="M477.7,309.7c-21.2,0-38.5-17.3-38.5-38.5s17.3-38.5,38.5-38.5c21.2,0,38.5,17.3,38.5,38.5c0,2.5-2,4.5-4.5,4.5
	c-2.5,0-4.5-2-4.5-4.5c0-16.3-13.3-29.6-29.6-29.6s-29.6,13.3-29.6,29.6c0,16.3,13.3,29.6,29.6,29.6c2.5,0,4.5,2,4.5,4.5
	S480.2,309.7,477.7,309.7z"/>
<path class="st7" d="M518.1,314.2c-1.1,0-2.2-0.4-3.1-1.2c-1.8-1.7-1.9-4.6-0.1-6.3c9.2-9.6,14.2-22.2,14.2-35.4
	c0-2.5,2-4.5,4.5-4.5s4.5,2,4.5,4.5c0,15.6-5.9,30.4-16.7,41.6C520.4,313.7,519.3,314.2,518.1,314.2z"/>
<path class="st7" d="M437.3,314.2c-1.2,0-2.4-0.5-3.2-1.4c-10.8-11.3-16.7-26-16.7-41.6c0-10.7,2.8-21.2,8.2-30.4
	c5.2-8.9,12.7-16.4,21.6-21.6c2.1-1.3,4.9-0.5,6.1,1.6c1.3,2.1,0.5,4.9-1.6,6.1c-15.6,9.2-25.4,26.2-25.4,44.3
	c0,13.3,5,25.8,14.2,35.4c1.7,1.8,1.6,4.6-0.1,6.3C439.5,313.8,438.4,314.2,437.3,314.2z"/>
<circle class="st8" cx="449.4" cy="223" r="4.5"/>
<circle class="st9" cx="501.8" cy="247.2" r="4.5"/>
<circle class="st9" cx="453.5" cy="295.1" r="4.5"/>
<path class="st6" d="M429.8,226.6c-0.4,0-0.8-0.1-1.1-0.4l-15.8-15.8c-0.6-0.6-0.6-1.5,0-2.1c0.6-0.6,1.5-0.6,2.1,0l15.8,15.8
	c0.6,0.6,0.6,1.5,0,2.1C430.6,226.5,430.2,226.6,429.8,226.6z"/>
<path class="st10" d="M478.1,257.6c-0.9,0-1.8,0.1-2.6,0.3c1.7,1.5,2.8,3.6,2.8,6.1c0,4.4-3.5,7.9-7.9,7.9c-2.2,0-4.2-0.9-5.6-2.4
	c-0.1,0.5-0.1,1-0.1,1.6c0,7.4,6,13.4,13.4,13.4c7.4,0,13.4-6,13.4-13.4C491.6,263.6,485.6,257.6,478.1,257.6z"/>
<path class="st11" d="M477.7,289.5c-10.1,0-18.4-8.2-18.4-18.4c0-1.7,1.3-3,3-3c1.7,0,3,1.3,3,3c0,6.8,5.6,12.4,12.4,12.4
	c6.8,0,12.4-5.6,12.4-12.4s-5.6-12.4-12.4-12.4c-1.7,0-3-1.3-3-3s1.3-3,3-3c10.1,0,18.4,8.2,18.4,18.4S487.8,289.5,477.7,289.5z"/>
<path class="st0" d="M26.3,110.2c-1.2,0-2.4-0.5-3.2-1.4C12.3,97.5,6.4,82.7,6.4,67.2c0-33.3,27.1-60.3,60.3-60.3
	C100,6.9,127,33.9,127,67.2c0,15.6-5.9,30.4-16.7,41.6c-1.7,1.8-4.6,1.9-6.3,0.1c-1.8-1.7-1.9-4.6-0.1-6.3C113,93,118,80.4,118,67.2
	c0-28.3-23-51.3-51.3-51.3c-28.3,0-51.3,23-51.3,51.3c0,13.3,5,25.8,14.2,35.4c1.7,1.8,1.6,4.6-0.1,6.3
	C28.5,109.8,27.4,110.2,26.3,110.2z"/>
<path class="st2" d="M66.7,105.7c-21.2,0-38.5-17.3-38.5-38.5s17.3-38.5,38.5-38.5c21.2,0,38.5,17.3,38.5,38.5c0,2.5-2,4.5-4.5,4.5
	s-4.5-2-4.5-4.5c0-16.3-13.3-29.6-29.6-29.6S37.1,50.9,37.1,67.2c0,16.3,13.3,29.6,29.6,29.6c2.5,0,4.5,2,4.5,4.5
	S69.2,105.7,66.7,105.7z"/>
<path class="st3" d="M107.1,110.2c-1.1,0-2.2-0.4-3.1-1.2c-1.8-1.7-1.9-4.6-0.1-6.3C113,93,118,80.4,118,67.2c0-2.5,2-4.5,4.5-4.5
	s4.5,2,4.5,4.5c0,15.6-5.9,30.4-16.7,41.6C109.4,109.7,108.3,110.2,107.1,110.2z"/>
<path class="st4" d="M26.3,110.2c-1.2,0-2.4-0.5-3.2-1.4C12.3,97.5,6.4,82.7,6.4,67.2c0-10.7,2.8-21.2,8.2-30.4
	c5.2-8.9,12.7-16.4,21.6-21.6c2.1-1.3,4.9-0.5,6.1,1.6c1.3,2.1,0.5,4.9-1.6,6.1C25.1,32.1,15.4,49,15.4,67.2
	c0,13.3,5,25.8,14.2,35.4c1.7,1.8,1.6,4.6-0.1,6.3C28.5,109.8,27.4,110.2,26.3,110.2z"/>
<circle class="st3" cx="38.4" cy="19" r="4.5"/>
<circle class="st3" cx="90.8" cy="43.2" r="4.5"/>
<circle class="st3" cx="42.5" cy="91.1" r="4.5"/>
<path class="st0" d="M18.8,22.6c-0.4,0-0.8-0.1-1.1-0.4L1.9,6.3c-0.6-0.6-0.6-1.5,0-2.1c0.6-0.6,1.5-0.6,2.1,0l15.8,15.8
	c0.6,0.6,0.6,1.5,0,2.1C19.6,22.5,19.2,22.6,18.8,22.6z"/>
<path class="st5" d="M67.1,53.6c-0.9,0-1.8,0.1-2.6,0.3c1.7,1.5,2.8,3.6,2.8,6.1c0,4.4-3.5,7.9-7.9,7.9c-2.2,0-4.2-0.9-5.6-2.4
	c-0.1,0.5-0.1,1-0.1,1.6c0,7.4,6,13.4,13.4,13.4s13.4-6,13.4-13.4C80.6,59.6,74.6,53.6,67.1,53.6z"/>
<path class="st0" d="M66.7,85.5c-10.1,0-18.4-8.2-18.4-18.4c0-1.7,1.3-3,3-3s3,1.3,3,3c0,6.8,5.6,12.4,12.4,12.4
	c6.8,0,12.4-5.6,12.4-12.4c0-6.8-5.6-12.4-12.4-12.4c-1.7,0-3-1.3-3-3c0-1.7,1.3-3,3-3c10.1,0,18.4,8.2,18.4,18.4
	S76.8,85.5,66.7,85.5z"/>
</svg>
