<svg id="Calque_1" data-name="Calque 1" xmlns="http://www.w3.org/2000/svg" viewBox="0 0 512 512"><defs><style>.cls-1{fill:#fff;}</style></defs><title>ICONE_Article</title><g id="_Groupe_" data-name="&lt;Groupe&gt;"><path id="_Tracé_transparent_" data-name="&lt;Tracé transparent&gt;" class="cls-1" d="M419.72,75.26H390.15a6.56,6.56,0,0,0-1.74.4V42.73C388.41,20.8,371.24,3,350.14,3H93.74C72.65,3,55.48,20.8,55.48,42.73V413.07c0,21.89,17.17,39.73,38.26,39.73h45V470.7c0,21.12,16.48,38.3,36.81,38.3H419.72c20.3,0,36.8-17.18,36.8-38.3V113.56c0-21.11-16.51-38.3-36.8-38.3ZM70.61,413.07V42.73c0-13.06,10.4-23.67,23.13-23.67h256.4c12.77,0,23.14,10.61,23.14,23.67V413.07c0,13-10.36,23.67-23.14,23.67H93.74c-12.73,0-23.13-10.62-23.13-23.67ZM441.39,470.7c0,12.27-9.75,22.24-21.67,22.24H175.54c-12,0-21.68-10-21.68-22.24V452.8H350.14c21.1,0,38.27-17.84,38.27-39.73V91a6.55,6.55,0,0,0,1.74.39h29.57c11.93,0,21.67,10,21.67,22.2Zm0,0"/><path id="_Tracé_transparent_2" data-name="&lt;Tracé transparent&gt;" class="cls-1" d="M305.19,107.42H138.72a8,8,0,0,0,0,16.06H305.19a8,8,0,0,0,0-16.06Zm0,0"/><path id="_Tracé_transparent_3" data-name="&lt;Tracé transparent&gt;" class="cls-1" d="M305.19,171.66H138.72a8,8,0,0,0,0,16.06H305.19a8,8,0,0,0,0-16.06Zm0,0"/><path id="_Tracé_transparent_4" data-name="&lt;Tracé transparent&gt;" class="cls-1" d="M305.19,235.9H138.72a8.07,8.07,0,0,0,0,16.1H305.19a8.06,8.06,0,0,0,0-16.1Zm0,0"/><path id="_Tracé_transparent_5" data-name="&lt;Tracé transparent&gt;" class="cls-1" d="M229.5,300.18H138.72a8,8,0,0,0,0,16.06H229.5a8,8,0,0,0,0-16.06Zm0,0"/></g></svg>