<svg id="Calque_1" data-name="Calque 1" xmlns="http://www.w3.org/2000/svg" viewBox="0 0 512 512"><defs><style>.cls-1{fill:#fff;}</style></defs><title>ICONE_Carte</title><g id="_Groupe_" data-name="&lt;Groupe&gt;"><path id="_Tracé_transparent_" data-name="&lt;Tracé transparent&gt;" class="cls-1" d="M256,4C116.92,4,4,116.92,4,256S116.92,508,256,508,508,395.08,508,256,395.08,4,256,4Zm0,17.38c5.49,0,10.93.2,16.33.58C290,39.13,305.52,64.68,317.57,95.87a43.76,43.76,0,0,0-22.46,29.79H186.66c12.91-44.78,32.19-81.47,55.17-103.83,4.69-.28,9.4-.44,14.16-.44Zm-40.23,3.45c-20.46,25.75-36.52,60.56-47.45,100.83H60.85A234.48,234.48,0,0,1,215.77,24.82Zm82.76.41A234.53,234.53,0,0,1,451.15,125.66h-70.9A43.62,43.62,0,0,0,337.69,90.9c-1.13,0-2.24.06-3.35.14-9.69-25.47-21.67-47.83-35.81-65.81Zm39.16,83a26.07,26.07,0,1,1-26.07,26.07,25.94,25.94,0,0,1,26.07-26.07Zm0,4.34A21.79,21.79,0,0,0,316,134.34a4.35,4.35,0,0,0,8.69.12v-.12a13,13,0,0,1,13-13,4.35,4.35,0,1,0,.12-8.69h-.12ZM50.28,143H164a498.79,498.79,0,0,0-10.55,70.4,43.7,43.7,0,0,0-33.86,33.88h-98A233.46,233.46,0,0,1,50.28,143Zm131.78,0H295.11a43.63,43.63,0,0,0,42.57,34.76c.41,0,.81,0,1.21,0a508.19,508.19,0,0,1,5.94,69.55H204.72a43.73,43.73,0,0,0-33.84-33.88A467,467,0,0,1,182.06,143Zm198.19,0h81.47a233.46,233.46,0,0,1,28.73,104.28H362.22a524.39,524.39,0,0,0-6.36-73.54A43.75,43.75,0,0,0,380.25,143Zm-218,86.9a26.07,26.07,0,0,1-.08,52.14l-4.62-.42a26,26,0,0,1,4-51.68h0l.65,0Zm-.08,4.34A21.79,21.79,0,0,0,140.43,256a4.35,4.35,0,0,0,8.69.12V256a13,13,0,0,1,13-13,4.35,4.35,0,0,0,.12-8.69ZM21.56,264.69h98a43.72,43.72,0,0,0,33.87,33.88A497.86,497.86,0,0,0,164,369H50.28A233.46,233.46,0,0,1,21.56,264.69Zm183.16,0H344.84a508.2,508.2,0,0,1-5.93,69.55c-.41,0-.81,0-1.22,0A43.63,43.63,0,0,0,295.11,369H182.06a467,467,0,0,1-11.19-70.4,43.73,43.73,0,0,0,33.84-33.88Zm157.5,0H490.44A233.47,233.47,0,0,1,461.72,369H380.25a43.76,43.76,0,0,0-24.39-30.74,524.38,524.38,0,0,0,6.36-73.54Zm-24.53,86.9a26.07,26.07,0,1,1-26.07,26.07,25.94,25.94,0,0,1,26.07-26.07Zm0,4.34A21.79,21.79,0,0,0,316,377.66a4.35,4.35,0,0,0,8.69.12v-.12a13,13,0,0,1,13-13,4.35,4.35,0,1,0,.12-8.69h-.12ZM60.85,386.34H168.31c10.93,40.27,27,75.08,47.47,100.83A234.48,234.48,0,0,1,60.85,386.34Zm125.81,0H295.11a43.74,43.74,0,0,0,22.48,29.79C305.53,447.32,290,472.86,272.36,490c-5.4.37-10.86.58-16.36.58q-7.13,0-14.15-.43c-23-22.37-42.28-59.06-55.19-103.84Zm193.59,0h70.9a234.52,234.52,0,0,1-152.6,100.42c14.14-18,26.12-40.34,35.81-65.8,1.09.08,2.21.13,3.33.13a43.62,43.62,0,0,0,42.56-34.76Zm0,0"/></g></svg>