<svg id="Calque_1" data-name="Calque 1" xmlns="http://www.w3.org/2000/svg" viewBox="0 0 512 512"><defs><style>.cls-1{fill:#fff;}</style></defs><title>ICONE_Connexion</title><path class="cls-1" d="M500,423.95V88a84.21,84.21,0,0,0-84-84H144.42a84.21,84.21,0,0,0-84,84v54.41a16.65,16.65,0,0,0,33.29,0V88a51,51,0,0,1,50.88-50.88H415.91A51,51,0,0,1,466.8,88v335.9a51,51,0,0,1-50.89,50.89H144.42a51,51,0,0,1-50.88-50.89V369.54a16.65,16.65,0,0,0-33.3,0v54.41A84.22,84.22,0,0,0,144.29,508H415.91a84.13,84.13,0,0,0,84-84.05Zm0,0"/><path class="cls-1" d="M351.21,244.22,237.66,130.68a16.6,16.6,0,0,0-23.55,23.41l85.27,85.26H28.69a16.65,16.65,0,1,0,0,33.29H299.51l-85.26,85.27a16.56,16.56,0,0,0,23.41,23.41L351.21,267.77a16.67,16.67,0,0,0,0-23.55Zm0,0"/></svg>