<svg id="Calque_1" data-name="Calque 1" xmlns="http://www.w3.org/2000/svg" viewBox="0 0 506 369.86"><defs><style>.cls-1{fill:#fff;}</style></defs><title>ICONE_Deconnexion</title><path class="cls-1" d="M509,379.25V132.74a61.8,61.8,0,0,0-61.68-61.68H248.09a61.8,61.8,0,0,0-61.68,61.68v39.93a12.22,12.22,0,0,0,24.43,0V132.74A37.43,37.43,0,0,1,248.19,95.4H447.32a37.43,37.43,0,0,1,37.34,37.34V379.25a37.43,37.43,0,0,1-37.34,37.35H248.09a37.43,37.43,0,0,1-37.34-37.35V339.32a12.22,12.22,0,0,0-24.44,0v39.93A61.8,61.8,0,0,0,248,440.93H447.32A61.74,61.74,0,0,0,509,379.25Zm0,0" transform="translate(-3 -71.07)"/><path class="cls-1" d="M6.58,264.64,89.9,348a12.19,12.19,0,1,0,17.28-17.18L44.62,268.22H243.26a12.22,12.22,0,1,0,0-24.43H44.52l62.57-62.57A12.15,12.15,0,1,0,89.9,164L6.58,247.36a12.23,12.23,0,0,0,0,17.28Zm0,0" transform="translate(-3 -71.07)"/></svg>