<?xml version="1.0" encoding="iso-8859-1"?>
<!-- Generator: Adobe Illustrator 19.0.0, SVG Export Plug-In . SVG Version: 6.00 Build 0)  -->
<svg xmlns="http://www.w3.org/2000/svg" xmlns:xlink="http://www.w3.org/1999/xlink" version="1.1" id="Layer_1" x="0px" y="0px" viewBox="0 0 488.1 488.1" style="enable-background:new 0 0 488.1 488.1;" xml:space="preserve" width="512px" height="512px">
<g>
	<g>
		<path d="M407.3,41.6C405.9,10.9,384.8,0,367.1,0c-0.3,0-0.6,0-0.9,0c-0.2,0-0.5,0-0.9,0c-17.7,0-38.8,10.9-40.3,41.6    c-0.3,2.9-2.8,32.1,12.4,49.2c7.1,7.8,16.5,11.9,28.1,12.1c0.3,0,0.6,0,0.7,0c0.1,0,0.2,0,0.3,0s0.3,0,0.4,0    c11.6-0.2,21-4.3,28-12.1C410.1,73.7,407.6,44.5,407.3,41.6z M385.9,82.8c-4.8,5.4-11.1,8-19.5,8.1h-0.1c-0.1,0-0.2,0-0.2,0    c-8.4-0.1-14.7-2.7-19.5-8.1c-12.2-13.6-9.5-39.9-9.5-40.2c0-0.1,0-0.2,0-0.4c1.3-28.1,22-30.3,28.3-30.3c0.3,0,0.5,0,0.6,0    c0.2,0,0.3,0,0.5,0c0.1,0,0.3,0,0.6,0c6.3,0,27,2.2,28.3,30.3c0,0.1,0,0.2,0,0.4C396.2,49.9,396,71.4,385.9,82.8z" fill="#FFFFFF"/>
	</g>
</g>
<g>
	<g>
		<path d="M440,151c-3.6-3.6-5.7-5.6-10-8.8c-15.6-11.5-34.2-19.1-35-19.4c-2.6-1-5.5-0.2-7.1,2l-21.5,29.6l-21.5-29.6    c-1.6-2.2-4.5-3.1-7.1-2c-0.7,0.3-17.4,7-32.3,17.4c-0.1,0-0.1,0.1-0.2,0.2c-15-10.5-31.8-17.3-32.5-17.6c-2.6-1-5.5-0.2-7.1,2    l-21.8,29.7l-21.5-29.6c-1.6-2.2-4.5-3.1-7.1-2c-0.7,0.3-17.5,7.1-32.5,17.6c-0.1,0-0.1-0.1-0.2-0.2c-15-10.4-31.6-17.2-32.3-17.4    c-2.6-1-5.5-0.2-7.1,2l-21.5,29.6l-21.5-29.6c-1.6-2.2-4.5-3.1-7.1-2c-0.8,0.3-19.5,7.9-35,19.4c-4.3,3.2-6.4,5.2-10,8.8    c-1.9,1.9-7.6,7.6-6.7,38.3c0.2,15.5,2.3,32.5,4.9,42.2c4.8,17.6,17.9,41.5,19.5,44.4c2.5,5.8,4.2,12,4.8,18.4l18.2,178.3    c0.9,8.8,8.2,15.4,17,15.4h31.4c8.8,0,16.1-6.6,17-15.4l18.2-178.3c0.6-6.3,2.3-12.5,4.8-18.4c0.6-1,2.7-5,5.5-10.4    c2.7,5.4,4.9,9.4,5.5,10.4c2.5,5.8,4.2,12,4.8,18.4l18.2,178.3c0.9,8.8,8.2,15.4,17,15.4h31.4c8.8,0,16.1-6.6,17-15.4l18.2-178.3    c0.6-6.3,2.3-12.5,4.8-18.4c0.6-1.1,2.8-5,5.5-10.4c2.7,5.5,4.9,9.4,5.5,10.4c2.5,5.8,4.2,12,4.8,18.4l18.2,178.3    c0.9,8.8,8.2,15.4,17,15.4H382c8.8,0,16.1-6.6,17-15.4l18.2-178.3c0.6-6.3,2.3-12.5,4.8-18.4c1.6-2.9,14.7-26.8,19.5-44.4    c2.6-9.7,4.7-26.7,5.2-42.3C447.6,158.6,441.9,152.9,440,151z M166.8,270.4c-0.1,0.2-0.2,0.3-0.3,0.5c-3.1,7.1-5.1,14.6-5.9,22.2    l-18.2,178.3c-0.3,2.6-2.5,4.6-5.1,4.6h-31.4c-2.6,0-4.8-2-5.1-4.6L82.6,293.1c-0.8-7.7-2.8-15.2-5.9-22.2    c-0.1-0.2-0.2-0.3-0.3-0.5s-13.9-25.1-18.5-42c-2.4-8.7-4.3-24.9-4.8-39.3c-0.6-20.9,2.2-28.5,3.3-29.6c3.4-3.4,5-4.9,8.6-7.6    c10.1-7.4,21.9-13.2,28.1-16.1l23.6,32.4c1.1,1.6,2.9,2.5,4.9,2.5c1.9,0,3.7-0.9,4.9-2.5l23.6-32.4c5.2,2.3,14.3,6.8,23,12.5    c-0.8,0.8-1.7,1.7-2.7,2.7c-1.9,1.9-7.6,7.6-6.7,38.3c0.4,15.6,2.5,32.6,5.2,42.3c1.7,6.3,4.5,13.4,7.4,20    C171.5,261.9,166.8,270.3,166.8,270.4z M307.6,228.4c-4.6,16.9-18.4,41.7-18.5,42c-0.1,0.2-0.2,0.3-0.3,0.5    c-3.1,7.1-5.1,14.6-5.9,22.2l-18.2,178.3c-0.3,2.6-2.5,4.6-5.1,4.6h-31.4c-2.6,0-4.8-2-5.1-4.6l-18.2-178.3    c-0.8-7.7-2.8-15.2-5.9-22.2c-0.1-0.2-0.2-0.3-0.3-0.5c-0.1-0.2-13.9-25-18.5-42c-2.4-8.7-4.3-24.9-4.8-39.3    c-0.6-20.9,2.1-28.4,3.2-29.6c3.4-3.4,5-4.9,8.6-7.6c10.2-7.4,22.1-13.2,28.3-16.1l23.6,32.4c1.1,1.6,2.9,2.5,4.9,2.5    s3.7-0.9,4.9-2.5l23.6-32.4c6.2,2.8,18.1,8.6,28.1,16.1c3.6,2.7,5.2,4.2,8.6,7.6c1.1,1.2,3.8,8.7,3.2,29.6    C312,203.5,310,219.7,307.6,228.4z M434.8,189.1c-0.4,14.4-2.4,30.6-4.8,39.3c-4.6,16.9-18.4,41.7-18.5,42    c-0.1,0.2-0.2,0.3-0.3,0.5c-3.1,7.1-5.1,14.6-5.9,22.2l-18.2,178.3c-0.3,2.6-2.5,4.6-5.1,4.6h-31.4c-2.6,0-4.8-2-5.1-4.6    l-18.2-178.3c-0.8-7.7-2.8-15.2-5.9-22.2c-0.1-0.2-0.2-0.3-0.3-0.5c0-0.1-4.7-8.5-9.5-18.8c2.9-6.7,5.7-13.7,7.4-20    c2.6-9.7,4.7-26.7,5.2-42.3c0.9-30.7-4.8-36.4-6.7-38.3c-1-1-1.9-1.9-2.7-2.7c8.8-5.7,17.9-10.1,23.1-12.5l23.6,32.4    c1.1,1.6,2.9,2.5,4.9,2.5c1.9,0,3.7-0.9,4.9-2.5l23.6-32.4c6.2,2.8,18,8.6,28.1,16.1c3.6,2.7,5.2,4.2,8.6,7.6    C432.7,160.7,435.4,168.2,434.8,189.1z" fill="#FFFFFF"/>
	</g>
</g>
<g>
	<g>
		<path d="M162.5,41.6C161.2,10.9,140,0,122.4,0c-0.3,0-0.6,0-0.9,0c-0.2,0-0.5,0-0.9,0C103,0,81.9,10.9,80.4,41.5    c-0.3,2.9-2.8,32.1,12.4,49.2c7,7.9,16.4,12,28,12.2c0.2,0,0.4,0,0.7,0c0.1,0,0.2,0,0.2,0c0.2,0,0.4,0,0.5,0    c11.6-0.2,21-4.3,27.9-12.1C165.3,73.7,162.8,44.5,162.5,41.6z M141.2,82.8c-4.8,5.4-11.2,8-19.5,8.1c-0.1,0-0.2,0-0.2,0h-0.1    c-8.4-0.1-14.7-2.7-19.5-8.1c-12.2-13.6-9.6-39.9-9.5-40.2c0-0.1,0-0.2,0-0.4c1.3-28.1,22-30.3,28.3-30.3c0.3,0,0.5,0,0.6,0    c0.2,0,0.3,0,0.5,0c0.1,0,0.3,0,0.6,0c6.3,0,27,2.2,28.3,30.3c0,0.1,0,0.2,0,0.4C151.5,49.9,151.3,71.4,141.2,82.8z" fill="#FFFFFF"/>
	</g>
</g>
<g>
	<g>
		<path d="M284.9,41.6C283.5,10.9,262.4,0,244.8,0c-0.3,0-0.6,0-0.9,0c-0.2,0-0.5,0-0.9,0c-17.7,0-38.8,10.9-40.3,41.6    c-0.3,2.9-2.8,32.1,12.4,49.2c7.1,7.8,16.5,11.9,28,12.1c0.3,0,0.6,0,0.7,0c0.1,0,0.2,0,0.3,0s0.3,0,0.4,0    c11.6-0.2,21-4.3,28-12.1C287.7,73.7,285.2,44.5,284.9,41.6z M263.5,82.8c-4.8,5.4-11.1,8-19.5,8.1h-0.1c-0.1,0-0.2,0-0.2,0    c-8.4-0.1-14.7-2.7-19.5-8.1c-12.1-13.6-9.5-39.9-9.5-40.2c0-0.1,0-0.2,0-0.4c1.3-28.1,22-30.3,28.3-30.3c0.3,0,0.5,0,0.6,0    c0.2,0,0.3,0,0.5,0c0.1,0,0.3,0,0.6,0c6.3,0,27,2.2,28.3,30.3c0,0.1,0,0.2,0,0.4C273.8,49.9,273.6,71.4,263.5,82.8z" fill="#FFFFFF"/>
	</g>
</g>
<g>
</g>
<g>
</g>
<g>
</g>
<g>
</g>
<g>
</g>
<g>
</g>
<g>
</g>
<g>
</g>
<g>
</g>
<g>
</g>
<g>
</g>
<g>
</g>
<g>
</g>
<g>
</g>
<g>
</g>
</svg>
