<svg id="Calque_1" data-name="Calque 1" xmlns="http://www.w3.org/2000/svg" viewBox="0 0 512 512"><defs><style>.cls-1{fill:#fff;}</style></defs><title>ICONE_Favoris</title><g id="_Groupe_" data-name="&lt;Groupe&gt;"><path id="_Tracé_transparent_" data-name="&lt;Tracé transparent&gt;" class="cls-1" d="M371.25,35.87A138.13,138.13,0,0,0,256,98.36,138.23,138.23,0,0,0,140.8,35.87C64.83,35.87,3,97.69,3,173.6,3,336.1,240.78,467.87,250.93,473.38l5,2.76,5-2.65c10.14-5.36,248-133.22,248-299.88,0-75.92-61.78-137.74-137.75-137.74Zm-115.17,416C221.76,431.94,24.33,311.14,24.33,173.6c0-64.16,52.25-116.42,116.48-116.42a116.89,116.89,0,0,1,105.55,67.5L256,145.47l9.66-20.79a116.4,116.4,0,0,1,222,49c0,141.13-197.28,258.75-231.65,278.2Zm0,0"/></g></svg>