<svg id="Calque_1" data-name="Calque 1" xmlns="http://www.w3.org/2000/svg" viewBox="0 0 512 512"><defs><style>.cls-1{fill:#fff;}</style></defs><title>ICONE_Profil</title><path class="cls-1" d="M509,256C509,116.52,395.48,3,256,3S3,116.52,3,256A252.32,252.32,0,0,0,85.12,442.38l-.23.23,8.18,6.91c.54.45,1.13.81,1.67,1.27,4.35,3.59,8.89,7,13.47,10.33,1.48,1.08,3,2.15,4.5,3.23,4.94,3.37,10,6.6,15.13,9.61,1.13.68,2.25,1.3,3.37,2,5.62,3.19,11.42,6.24,17.3,9,.45.23.86.4,1.31.63A254.73,254.73,0,0,0,211,504.92c.59.08,1.13.17,1.7.26q10,1.76,20.22,2.69c.8.09,1.67.14,2.47.23,6.79.54,13.66.9,20.62.9s13.7-.36,20.44-.9c.86-.09,1.71-.14,2.56-.18,6.78-.62,13.43-1.53,20-2.64.59-.09,1.17-.23,1.76-.32A249.29,249.29,0,0,0,361.08,486c.71-.31,1.44-.63,2.1-.94,5.7-2.69,11.24-5.57,16.68-8.62,1.35-.77,2.69-1.53,4-2.33,4.94-2.92,9.84-5.93,14.56-9.21,1.7-1.13,3.37-2.38,5-3.6,4-2.87,8-5.88,11.86-9,.86-.67,1.81-1.3,2.66-2l8.4-7-.26-.22A252.19,252.19,0,0,0,509,256ZM21.42,256C21.42,126.63,126.62,21.42,256,21.42S490.58,126.63,490.58,256a234,234,0,0,1-79,175.37,66.57,66.57,0,0,0-8.22-4.94l-77.89-38.94a20.43,20.43,0,0,1-11.32-18.33V341.94c1.79-2.21,3.73-4.73,5.66-7.51a186.66,186.66,0,0,0,24.08-47.12A33.38,33.38,0,0,0,363.05,257V224.42a33.68,33.68,0,0,0-8.13-21.79V159.69c.45-4.76,2.15-31.72-17.34-53.95C320.64,86.42,293.19,76.58,256,76.58s-64.64,9.84-81.58,29.16c-19.49,22.23-17.79,49.19-17.34,53.95v42.94a33.59,33.59,0,0,0-8.13,21.79V257a33.49,33.49,0,0,0,12.32,26c7.45,29.2,22.77,51.3,28.47,58.75v26.63a20.6,20.6,0,0,1-10.68,18l-72.78,39.66a64.16,64.16,0,0,0-6.91,4.4A234.12,234.12,0,0,1,21.42,256ZM393.64,445.8c-3.23,2.33-6.52,4.62-9.84,6.79l-4.58,3c-4.36,2.69-8.76,5.21-13.29,7.64-1,.49-2,1-3,1.52a233.89,233.89,0,0,1-32.12,13.57c-.36.14-.77.28-1.17.4-5.75,1.93-11.59,3.6-17.51,5.08h0c-6,1.48-12,2.69-18.06,3.73a1.51,1.51,0,0,0-.49.09c-5.7.9-11.5,1.56-17.25,2.1-1,.09-2.07.14-3.1.23-5.7.4-11.45.67-17.2.67s-11.64-.26-17.43-.71c-1,0-2-.14-3-.23-5.84-.49-11.64-1.21-17.39-2.1l-.76-.14a238.71,238.71,0,0,1-35.81-8.94l-1.07-.4c-5.8-1.93-11.5-4.14-17.12-6.57a.14.14,0,0,1-.13,0c-5.3-2.29-10.52-4.81-15.69-7.5-.67-.36-1.35-.68-2-1-4.72-2.52-9.29-5.21-13.83-8-1.35-.85-2.69-1.7-4-2.61-4.19-2.69-8.31-5.57-12.32-8.58l-1.21-.94.85-.49,72.77-39.66a39,39,0,0,0,20.26-34.19V335.25L206,332.68c-.22-.23-20.08-24.39-27.62-57.19l-.8-3.63-3.15-2a15.24,15.24,0,0,1-7.1-12.8V224.42a15.26,15.26,0,0,1,5.12-11.28l3.06-2.74V159.19l-.09-1.21c0-.23-2.74-22.38,12.85-40.12C201.56,102.68,224.38,95,256,95s54.27,7.64,67.56,22.69c15.58,17.56,13,40.11,13,40.3l-.09,52.46,3.06,2.74a15.09,15.09,0,0,1,5.12,11.24V257a15.44,15.44,0,0,1-10.87,14.51l-4.59,1.39-1.48,4.58a170.43,170.43,0,0,1-23,46.28c-2.43,3.4-4.76,6.42-6.79,8.75l-2.24,2.56v34.05A38.74,38.74,0,0,0,317.23,404l77.9,39c.49.22,1,.49,1.48.76-1,.72-2,1.39-3,2.12Zm0,0"/></svg>