<svg id="Calque_1" data-name="Calque 1" xmlns="http://www.w3.org/2000/svg" viewBox="0 0 512 512"><defs><style>.cls-1{fill:#fff;}</style></defs><title>ICONE_Question</title><path class="cls-1" d="M256,3C116.59,3,3.6,116,3.6,255.39A251.6,251.6,0,0,0,77.16,433.5c-8.34,22.6-25.62,71.12-21.68,75,5.29,5.19,81-30.65,81-30.65l-.14-.14A251.29,251.29,0,0,0,256,507.79c139.41,0,252.4-113,252.4-252.4S394.74,3,256,3Zm0,480.32c-125.52,0-227.93-102.4-227.93-227.93S129.8,27.47,256,27.47s227.93,102.4,227.93,227.93S381.53,483.32,256,483.32Z"/><path class="cls-1" d="M253.37,364.4a13.21,13.21,0,1,0,13.21,13.21A13.24,13.24,0,0,0,253.37,364.4Z"/><path class="cls-1" d="M255.94,133.24a65.11,65.11,0,0,0-65.39,65.39,11.87,11.87,0,1,0,23.73,0,41,41,0,0,1,82,0c0,18.47-13.89,31-25.75,38.29-23.74,14.5-29.06,35-28.39,45.57v29.73c0,6.6,5.93,11.87,12.54,11.87a11.8,11.8,0,0,0,11.87-11.87V280.48c0-.68-.67-13.22,17.19-23.8,24.47-14.5,37.68-35.66,37.68-58.79C321.39,161.56,292.27,133.24,255.94,133.24Z"/></svg>