<svg id="Calque_1" data-name="Calque 1" xmlns="http://www.w3.org/2000/svg" viewBox="0 0 512 512"><defs><style>.cls-1{fill:#fff;}</style></defs><title>ICONE_Thème</title><g id="_Groupe_" data-name="&lt;Groupe&gt;"><path id="_Tracé_transparent_" data-name="&lt;Tracé transparent&gt;" class="cls-1" d="M76,130A63.06,63.06,0,0,0,138.3,76H490a9,9,0,1,0,0-18H138.3A63,63,0,1,0,76,130ZM76,22A45,45,0,1,1,31,67,45.06,45.06,0,0,1,76,22Zm0,0"/><path id="_Tracé_transparent_2" data-name="&lt;Tracé transparent&gt;" class="cls-1" d="M436,382a63.06,63.06,0,0,0-62.32,54H22a9,9,0,0,0,0,18H373.7A63,63,0,1,0,436,382Zm0,108a45,45,0,1,1,45-45,45,45,0,0,1-45,45Zm0,0"/><path id="_Tracé_transparent_3" data-name="&lt;Tracé transparent&gt;" class="cls-1" d="M490,247H322.33a64.86,64.86,0,0,0-128.93,0H22a9,9,0,1,0,0,18H194a64.77,64.77,0,0,0,127.74,0H490a9,9,0,1,0,0-18Zm-232.1,54a46.84,46.84,0,1,1,46.84-46.84A46.88,46.88,0,0,1,257.87,301Zm0,0"/></g></svg>