<?xml version="1.0" encoding="iso-8859-1"?>
<!-- Generator: Adobe Illustrator 19.0.0, SVG Export Plug-In . SVG Version: 6.00 Build 0)  -->
<svg xmlns="http://www.w3.org/2000/svg" xmlns:xlink="http://www.w3.org/1999/xlink" version="1.1" id="Layer_1" x="0px" y="0px" viewBox="0 0 512 512" style="enable-background:new 0 0 512 512;" xml:space="preserve" width="512px" height="512px">
<g>
	<g>
		<path d="M256,0C114.842,0,0,114.842,0,256s114.842,256,256,256s256-114.842,256-256S397.158,0,256,0z M468.509,149.56    c-24.678-7.677-66.056-18.438-87.168-12.022c-4.538,1.379-8.626,2.808-12.296,4.243l23.132-46.263    c5.123-10.246,20.25-12.565,26.066-13.083C438.71,101.578,455.798,124.285,468.509,149.56z M237.714,18.982    c6.036-0.461,12.134-0.696,18.286-0.696c29.069,0,56.93,5.255,82.699,14.847c-5.682,8.105-19.665,25.7-31.931,31.831    c-9.75,4.88-33.17-2.413-46.679-9.143c-0.387-0.192-0.788-0.359-1.197-0.496l-21.178-7.058V18.982z M165.575,475.829    C79.221,440.176,18.286,355.077,18.286,256c0-10.517,0.695-20.875,2.026-31.034c6.567,23.242,21.047,45.646,49.23,57.724    c12.928,5.54,23.221,9.583,31.49,12.833c13.871,5.449,22.242,8.739,24.799,12.024c2.17,2.79,2.17,9.868,2.17,21.596    c0,41.221,11.52,61.02,30.106,79.607C167.476,418.121,168.135,451.293,165.575,475.829z M200.062,487.049    c-5.69-1.378-11.299-2.96-16.823-4.739c2.112-16.827,6.667-67.619-12.202-86.488c-16.053-16.054-24.751-31.433-24.751-66.679    c0-16.172,0-25.08-6.022-32.822c-5.635-7.248-14.628-10.779-32.546-17.819c-8.154-3.203-18.301-7.19-30.973-12.621    c-56.142-24.06-41.072-96.216-40.388-99.337c0.143-0.648,0.205-1.293,0.208-1.931c12.687-30.349,31.489-57.526,54.864-79.982    v34.226c0,7.94,4.241,14.763,11.635,18.721c15.786,8.449,44.406,3.67,66.579-11.114c10.79-7.194,16.262-15.676,16.262-25.216    c0-8.024-4.024-14.643-8.088-19.277l12.311-12.312c4.823,7.431,12.42,17.819,22.835,28.234    c7.204,7.205,10.57,13.763,10.002,19.491c-0.828,8.373-10.11,16.201-17.751,21.295c-18.124,12.083-28.786,30.868-38.191,47.442    c-5.929,10.444-11.528,20.31-18.06,26.844C129.512,232.415,128,243.824,128,246.857c0,2.424,0.963,4.75,2.677,6.464l36.571,36.571    c16.769,16.77,98.376,58.692,123.83,71.563c-0.943,2.013-2.478,4.442-4.973,6.938c-3.862,3.862-6.71,10.076-10.653,18.676    c-7.992,17.433-18.938,41.308-41.828,52.752C206.434,453.418,199.723,473.303,200.062,487.049z M430.055,417.718    C386.619,464.435,324.67,493.714,256,493.714c-12.598,0-24.967-0.994-37.04-2.891c-0.071-0.212-6.289-20.08,22.844-34.644    c28.651-14.326,41.662-42.708,50.272-61.489c2.415-5.27,5.422-11.828,6.961-13.368c11.489-11.489,11.82-23.426,11.82-24.75    c0-3.462-1.957-6.63-5.054-8.179c-30.147-15.074-111.484-57.29-125.624-71.429l-32.667-32.667    c1.694-3.453,5.584-9.605,14.382-18.404c8.283-8.283,14.475-19.194,21.032-30.748c8.811-15.525,17.922-31.58,32.431-41.252    c16.116-10.743,24.557-22.096,25.805-34.705c1.134-11.444-4.003-22.96-15.268-34.223c-16.911-16.911-25.636-34.038-25.717-34.196    c-1.314-2.627-3.813-4.464-6.713-4.935c-2.9-0.473-5.852,0.482-7.93,2.56l-27.429,27.429c-1.936,1.935-2.903,4.638-2.633,7.366    c0.27,2.725,1.748,5.185,4.027,6.705c2.167,1.446,8.119,6.821,8.119,11.355c0,3.993-5.087,7.98-8.119,10.002    c-19.176,12.784-40.44,14.152-47.808,10.205c-1.978-1.058-1.978-1.877-1.978-2.598V73.143c0-1.337-0.303-2.598-0.819-3.743    c31.423-24.825,69.237-41.896,110.533-48.3v33.758c0,3.935,2.518,7.429,6.251,8.674l26.835,8.944    c4.809,2.35,26.358,12.319,45.607,12.319c6.029,0,11.833-0.978,16.825-3.473c20.224-10.114,39.288-38.475,40.089-39.679    c0.295-0.442,0.522-0.907,0.731-1.377c15.988,7.423,31.016,16.572,44.848,27.207c-9.215,3.08-19.303,8.889-24.792,19.867    l-36.571,73.143c-2.038,4.076-0.815,9.087,2.938,11.672c1.593,1.098,3.415,1.636,5.222,1.636c2.451,0,4.872-0.991,6.646-2.922    c0.084-0.085,8.578-8.536,32.602-15.835c17.182-5.219,64.036,7.28,91.741,17.041c2.981,7.874,5.567,15.94,7.709,24.185    l-24.876-12.438c-1.27-0.634-2.67-0.964-4.09-0.964c-0.784,0-19.721,0.105-65.794,9.321    c-43.766,8.752-39.609,35.853-36.574,55.643c0.883,5.757,1.796,11.707,1.796,17.321c0,23.982,20.383,25.538,35.266,26.672    c10.723,0.819,22.878,1.746,32.806,8.364C439.82,310.296,436.874,375.748,430.055,417.718z M434.786,284.964    c-13.909-9.272-29.24-10.442-41.558-11.382c-18.371-1.402-18.371-2.893-18.371-8.44c0-7.007-1.02-13.661-2.007-20.094    c-3.119-20.335-4.542-29.616,22.086-34.942c35.701-7.138,54.393-8.596,60.196-8.891l34.492,17.248    c0.388,0.194,0.791,0.318,1.191,0.452c1.901,12.087,2.898,24.47,2.898,37.083c0,49.789-15.398,96.044-41.667,134.277    C455.665,353.68,456.825,299.657,434.786,284.964z" fill="#FFFFFF"/>
	</g>
</g>
<g>
</g>
<g>
</g>
<g>
</g>
<g>
</g>
<g>
</g>
<g>
</g>
<g>
</g>
<g>
</g>
<g>
</g>
<g>
</g>
<g>
</g>
<g>
</g>
<g>
</g>
<g>
</g>
<g>
</g>
</svg>
